Coordinates
version=1
nRows=16
nColumns=36
inDegrees=yes

Units are S.I. units (second, meters, Newtons, ...)
If the header above contains a line with 'inDegrees', this indicates whether rotational values are in degrees (yes) or radians (no).

endheader
time	pelvis_tilt	pelvis_list	pelvis_rotation	pelvis_tx	pelvis_ty	pelvis_tz	hip_flexion_r	hip_adduction_r	hip_rotation_r	knee_angle_r	knee_angle_r_beta	ankle_angle_r	subtalar_angle_r	mtp_angle_r	hip_flexion_l	hip_adduction_l	hip_rotation_l	knee_angle_l	knee_angle_l_beta	ankle_angle_l	subtalar_angle_l	mtp_angle_l	lumbar_extension	lumbar_bending	lumbar_rotation	arm_flex_r	arm_add_r	arm_rot_r	elbow_flex_r	pro_sup_r	arm_flex_l	arm_add_l	arm_rot_l	elbow_flex_l	pro_sup_l
      1.14000000	    -16.92886336	     -2.37141443	      2.11689107	     -0.68370543	      1.25344372	     -0.59795266	     33.80860210	     -2.97649978	     -1.78263468	     54.15728483	      0.94522293	    -21.46457891	     -6.49507287	     -4.19935924	     30.05444771	     -4.45132315	      1.37626632	     51.87879104	      0.90545572	    -25.33664104	    -12.33927654	     -4.19935924	     -7.51646907	      3.23346417	     -0.04094564	     63.99923994	    -35.05738410	     23.40743157	     97.42620738	    101.12757200	     69.46953388	    -36.25361527	     26.38889044	     91.66162017	     92.45584965
      1.15000000	    -16.83881957	     -2.42819899	      1.89250591	     -0.67406660	      1.25724610	     -0.59795774	     34.42776422	     -3.07696739	     -2.00920943	     52.86153853	      0.92260790	    -21.55406501	     -6.14290263	     -4.22355370	     30.66124172	     -4.73509298	      1.46447628	     50.58037931	      0.88279416	    -25.25763280	    -12.36121205	     -4.22355370	     -8.17406541	      3.22527268	      0.18525054	     63.21947245	    -34.69634327	     23.40159637	     96.54872269	    101.05807229	     68.92670712	    -36.16049519	     26.23735791	     90.78255674	     92.38880880
      1.16000000	    -16.76209050	     -2.51524427	      1.66957698	     -0.66460474	      1.26014803	     -0.59802467	     34.93490627	     -3.15688317	     -2.24398090	     51.10165342	      0.89189211	    -21.57088944	     -5.74861735	     -4.24395545	     31.17830350	     -5.08007025	      1.45023099	     48.76687888	      0.85114260	    -24.94691848	    -12.38766311	     -4.24395545	     -8.86887297	      3.22447458	      0.48121709	     62.39040480	    -34.38493525	     23.35138902	     95.51877450	    100.98466971	     68.41613081	    -35.92436779	     26.10273946	     89.85621550	     92.31323396
      1.17000000	    -16.40476243	     -2.61024396	      1.40876136	     -0.65530172	      1.26264919	     -0.59811838	     34.99961931	     -3.19159549	     -2.41035241	     48.88404201	      0.85318748	    -21.66704238	     -5.08966178	     -4.29525343	     31.29079733	     -5.50166966	      1.29229710	     46.51949521	      0.81191836	    -24.45954706	    -12.13042359	     -4.29525343	     -9.91273502	      3.18213302	      1.01596703	     61.53305881	    -34.04161348	     22.80024509	     94.06505981	    100.88226940	     68.17373079	    -35.10448783	     25.77976984	     88.27930402	     92.25141744
      1.18000000	    -16.37429201	     -2.66429482	      1.22257245	     -0.64604467	      1.26367013	     -0.59846738	     35.35114687	     -3.33390836	     -2.65391471	     46.49659644	      0.81151870	    -21.55148927	     -4.86624966	     -4.31897954	     31.70792588	     -5.78599511	      1.16536811	     43.98092475	      0.76761195	    -24.10611710	    -11.75161848	     -4.31897954	    -10.61214081	      3.15738212	      1.40243698	     60.59331670	    -33.94201948	     22.82101519	     93.04606931	    100.82925135	     67.72800879	    -34.79354833	     25.97454800	     87.37391349	     92.24414765
      1.19000000	    -15.98738716	     -2.69605376	      1.01970458	     -0.63679772	      1.26435331	     -0.59861444	     35.20864526	     -3.41177477	     -2.80167670	     43.82777135	      0.76493891	    -21.74206619	     -4.62073684	     -4.38479534	     31.69807987	     -6.17878064	      0.82469308	     41.26865365	      0.72027388	    -23.98127388	    -10.38795610	     -4.38479534	    -11.73769410	      3.09163080	      1.94306963	     59.76012959	    -33.70129215	     22.51165574	     91.63024047	    100.83158433	     67.66802699	    -34.19559495	     26.29460012	     85.75551462	     92.36592150
      1.20000000	    -16.03694890	     -2.74149205	      0.85619055	     -0.62755370	      1.26327716	     -0.59883926	     35.56109696	     -3.53705887	     -3.04545888	     41.26150785	      0.72014917	    -21.66351006	     -4.57724837	     -4.40238970	     32.25050737	     -6.49350098	      0.66422941	     38.74369947	      0.67620512	    -23.98406962	     -9.76349333	     -4.40238970	    -12.37098371	      3.06040544	      2.24169111	     58.82431172	    -33.55321190	     22.79028353	     90.54379514	    100.81430517	     67.17758639	    -34.13145818	     26.66595821	     84.94942679	     92.36955680
      1.21000000	    -15.71081305	     -2.78689194	      0.66720771	     -0.61819261	      1.26199538	     -0.59878196	     35.41447675	     -3.51166469	     -2.99143219	     38.55645499	      0.67293709	    -22.09318339	     -4.49836050	     -4.43449315	     32.38068581	     -6.86008013	      0.61611139	     36.23209371	      0.63236933	    -24.43193478	     -8.53715490	     -4.43449315	    -13.41496499	      2.98496485	      2.56556960	     58.10929868	    -33.20473515	     22.92376977	     88.83668904	    100.73719376	     66.87598066	    -33.88825807	     27.05034400	     83.46814707	     92.31214306
      1.22000000	    -15.31717711	     -2.80880735	      0.55495503	     -0.60881556	      1.25991805	     -0.59876223	     35.20046790	     -3.51384705	     -2.89223732	     35.94156465	      0.62729864	    -23.05109902	     -4.65826434	     -4.47836693	     32.53163658	     -7.18363874	      0.57496025	     33.94006780	      0.59236593	    -24.98324140	     -7.09886389	     -4.47836693	    -14.49784426	      2.94564211	      2.80052909	     57.42151194	    -32.77177846	     23.11320750	     86.86140575	    100.72721440	     66.66042791	    -33.63255923	     27.56724903	     81.52026613	     92.31582943
      1.23000000	    -15.13481575	     -2.81880628	      0.51809088	     -0.59925824	      1.25638278	     -0.59877541	     35.24697154	     -3.60051497	     -2.99192355	     33.51035845	      0.58486609	    -24.12906819	     -4.99335684	     -4.53149109	     33.03683191	     -7.42310202	      0.60703414	     32.00231836	      0.55854582	    -25.31004371	     -6.13110147	     -4.53149109	    -15.28464373	      2.91068484	      2.89682369	     56.53881275	    -32.46608068	     23.42233937	     85.06411738	    100.81107671	     66.20272141	    -33.67449466	     28.22421037	     79.66711834	     92.44844083
      1.24000000	    -14.99658259	     -2.87115052	      0.48172810	     -0.58951358	      1.25176188	     -0.59891620	     35.35143283	     -3.65497575	     -3.08634782	     31.19604513	      0.54447370	    -25.14568339	     -4.91907063	     -4.57540797	     33.58778628	     -7.60967789	      0.90761963	     30.21282863	      0.52731334	    -25.70464687	     -5.56387274	     -4.57540797	    -15.99382005	      2.96502960	      2.99375406	     55.53811857	    -32.17285477	     23.68203216	     83.32589154	    100.87911312	     65.42493205	    -33.84469998	     28.74952882	     77.89580801	     92.54295745
      1.25000000	    -14.85182548	     -2.94154701	      0.47104612	     -0.57959321	      1.24605968	     -0.59915556	     35.46680806	     -3.71379352	     -3.23281406	     29.03720343	      0.50679481	    -26.06143444	     -4.57435632	     -4.61063859	     34.19643305	     -7.78164192	      1.20232437	     28.67500983	      0.50047333	    -26.14602848	     -5.09249259	     -4.61063859	    -16.68739059	      3.04904293	      3.02103646	     54.37376218	    -31.96508584	     23.90342812	     81.62830107	    100.90985554	     64.40195437	    -34.07294798	     29.10745318	     76.08886133	     92.56553444
      1.26000000	    -14.67725319	     -3.02710470	      0.55399736	     -0.56959719	      1.23938657	     -0.59956611	     35.52100409	     -3.78572597	     -3.45264335	     26.93605102	      0.47012278	    -27.10006514	     -4.11108145	     -4.66347253	     34.88168515	     -7.92586358	      1.47266088	     27.39830847	      0.47819069	    -26.78175011	     -4.54199933	     -4.66347253	    -17.35761872	      3.16629130	      2.96237164	     53.08272462	    -31.79677666	     24.01892080	     79.66481467	    101.04531847	     63.27279887	    -34.29153718	     29.36353584	     73.93163668	     92.73876318
      1.27000000	    -14.61618671	     -3.13805678	      0.64353816	     -0.55940390	      1.23152165	     -0.60000927	     35.70443462	     -3.79626706	     -3.59523824	     24.98359026	      0.43604591	    -27.73842509	     -3.35262614	     -4.71147408	     35.68143571	     -8.06831249	      1.71548147	     26.24065450	      0.45798582	    -27.37881362	     -4.05865650	     -4.71147408	    -17.88155601	      3.31282952	      2.92435368	     51.40769115	    -31.76589543	     23.85559462	     77.95293772	    101.14778202	     61.75681014	    -34.70541803	     29.56130570	     72.07856442	     92.96828636
      1.28000000	    -14.58763312	     -3.24471580	      0.69286909	     -0.54905848	      1.22256968	     -0.60033471	     35.95613914	     -3.77097344	     -3.67290893	     23.19884911	      0.40489630	    -28.12381400	     -2.50470031	     -4.75960727	     36.47196600	     -8.20877000	      1.87152575	     25.14433533	      0.43885144	    -27.99631643	     -3.70118023	     -4.75960727	    -18.36240548	      3.43385689	      2.92834942	     49.47013882	    -31.69434737	     23.37817789	     76.19227247	    101.23870574	     59.93473977	    -35.25398675	     29.64848118	     70.32228058	     93.25485472
      1.29000000	    -14.58021947	     -3.33866529	      0.71935676	     -0.53860219	      1.21254118	     -0.60060347	     36.29273680	     -3.72016436	     -3.64596373	     21.65498842	      0.37795085	    -28.31884462	     -1.71028598	     -4.80924709	     37.25381579	     -8.31898137	      1.98750353	     24.11379394	      0.42086510	    -28.63019970	     -3.40806336	     -4.80924709	    -18.81103104	      3.55867794	      2.88246571	     47.30224806	    -31.55261331	     22.67393389	     74.41864618	    101.33489872	     57.77513844	    -35.93355048	     29.51966315	     68.55641864	     93.54961531
